<svg width="217" height="85" viewBox="0 0 217 85" fill="none" xmlns="http://www.w3.org/2000/svg">
<path d="M9.312 22.216C7.712 22.216 6.312 21.864 5.112 21.16C3.928 20.44 3.008 19.432 2.352 18.136C1.712 16.824 1.392 15.288 1.392 13.528C1.392 12.2 1.576 11.008 1.944 9.952C2.312 8.88 2.84 7.968 3.528 7.216C4.216 6.448 5.048 5.864 6.024 5.464C7 5.064 8.096 4.864 9.312 4.864C10.928 4.864 12.328 5.216 13.512 5.92C14.696 6.624 15.608 7.624 16.248 8.92C16.904 10.216 17.232 11.744 17.232 13.504C17.232 14.832 17.048 16.032 16.68 17.104C16.312 18.176 15.776 19.096 15.072 19.864C14.384 20.632 13.552 21.216 12.576 21.616C11.6 22.016 10.512 22.216 9.312 22.216ZM9.312 20.056C10.432 20.056 11.384 19.8 12.168 19.288C12.968 18.776 13.576 18.032 13.992 17.056C14.424 16.08 14.64 14.904 14.64 13.528C14.64 11.464 14.176 9.864 13.248 8.728C12.32 7.592 11.008 7.024 9.312 7.024C8.192 7.024 7.232 7.28 6.432 7.792C5.648 8.288 5.04 9.024 4.608 10C4.192 10.976 3.984 12.152 3.984 13.528C3.984 15.576 4.448 17.176 5.376 18.328C6.32 19.48 7.632 20.056 9.312 20.056ZM24.4894 22.216C23.5454 22.216 22.7534 22.04 22.1134 21.688C21.4894 21.336 21.0174 20.816 20.6974 20.128C20.3934 19.424 20.2414 18.544 20.2414 17.488V11.344C20.2414 10.928 20.3454 10.624 20.5534 10.432C20.7614 10.224 21.0574 10.12 21.4414 10.12C21.8254 10.12 22.1214 10.224 22.3294 10.432C22.5534 10.624 22.6654 10.928 22.6654 11.344V17.512C22.6654 18.456 22.8574 19.152 23.2414 19.6C23.6254 20.048 24.2334 20.272 25.0654 20.272C25.9774 20.272 26.7134 19.968 27.2734 19.36C27.8494 18.736 28.1374 17.92 28.1374 16.912V11.344C28.1374 10.928 28.2414 10.624 28.4494 10.432C28.6574 10.224 28.9614 10.12 29.3614 10.12C29.7454 10.12 30.0414 10.224 30.2494 10.432C30.4574 10.624 30.5614 10.928 30.5614 11.344V20.944C30.5614 21.76 30.1694 22.168 29.3854 22.168C29.0174 22.168 28.7294 22.064 28.5214 21.856C28.3134 21.632 28.2094 21.328 28.2094 20.944V18.904L28.5214 19.432C28.2014 20.328 27.6894 21.016 26.9854 21.496C26.2814 21.976 25.4494 22.216 24.4894 22.216ZM38.9694 22.216C38.0094 22.216 37.2014 22.048 36.5454 21.712C35.8894 21.376 35.4014 20.88 35.0814 20.224C34.7614 19.568 34.6014 18.768 34.6014 17.824V12.16H33.1614C32.8414 12.16 32.5934 12.08 32.4174 11.92C32.2414 11.744 32.1534 11.512 32.1534 11.224C32.1534 10.92 32.2414 10.688 32.4174 10.528C32.5934 10.368 32.8414 10.288 33.1614 10.288H34.6014V7.816C34.6014 7.416 34.7054 7.112 34.9134 6.904C35.1374 6.696 35.4414 6.592 35.8254 6.592C36.2094 6.592 36.5054 6.696 36.7134 6.904C36.9214 7.112 37.0254 7.416 37.0254 7.816V10.288H39.8334C40.1534 10.288 40.4014 10.368 40.5774 10.528C40.7534 10.688 40.8414 10.92 40.8414 11.224C40.8414 11.512 40.7534 11.744 40.5774 11.92C40.4014 12.08 40.1534 12.16 39.8334 12.16H37.0254V17.632C37.0254 18.48 37.2014 19.12 37.5534 19.552C37.9214 19.984 38.5134 20.2 39.3294 20.2C39.6174 20.2 39.8654 20.176 40.0734 20.128C40.2974 20.064 40.4814 20.024 40.6254 20.008C40.8014 20.008 40.9454 20.072 41.0574 20.2C41.1694 20.312 41.2254 20.536 41.2254 20.872C41.2254 21.112 41.1774 21.336 41.0814 21.544C41.0014 21.752 40.8494 21.888 40.6254 21.952C40.4334 22.016 40.1694 22.072 39.8334 22.12C39.5134 22.184 39.2254 22.216 38.9694 22.216ZM47.0899 22.216C46.0659 22.216 45.1619 21.976 44.3779 21.496C43.6099 21 43.0099 20.296 42.5779 19.384C42.1459 18.456 41.9299 17.376 41.9299 16.144C41.9299 14.88 42.1459 13.8 42.5779 12.904C43.0099 12.008 43.6099 11.312 44.3779 10.816C45.1619 10.32 46.0659 10.072 47.0899 10.072C48.1139 10.072 48.9939 10.328 49.7299 10.84C50.4819 11.336 50.9859 12.008 51.2419 12.856H50.9779V6.136C50.9779 5.736 51.0819 5.432 51.2899 5.224C51.4979 5.016 51.7939 4.912 52.1779 4.912C52.5619 4.912 52.8579 5.016 53.0659 5.224C53.2899 5.432 53.4019 5.736 53.4019 6.136V20.944C53.4019 21.328 53.2979 21.632 53.0899 21.856C52.8819 22.064 52.5859 22.168 52.2019 22.168C51.8179 22.168 51.5219 22.064 51.3139 21.856C51.1059 21.632 51.0019 21.328 51.0019 20.944V18.832L51.2659 19.36C51.0099 20.224 50.5059 20.92 49.7539 21.448C49.0179 21.96 48.1299 22.216 47.0899 22.216ZM47.7139 20.344C48.3699 20.344 48.9459 20.184 49.4419 19.864C49.9379 19.544 50.3219 19.072 50.5939 18.448C50.8819 17.824 51.0259 17.056 51.0259 16.144C51.0259 14.768 50.7219 13.728 50.1139 13.024C49.5059 12.32 48.7059 11.968 47.7139 11.968C47.0419 11.968 46.4579 12.128 45.9619 12.448C45.4659 12.752 45.0739 13.216 44.7859 13.84C44.5139 14.464 44.3779 15.232 44.3779 16.144C44.3779 17.504 44.6819 18.544 45.2899 19.264C45.8979 19.984 46.7059 20.344 47.7139 20.344ZM61.8936 22.216C60.7096 22.216 59.6856 21.968 58.8216 21.472C57.9736 20.976 57.3096 20.272 56.8296 19.36C56.3496 18.448 56.1096 17.376 56.1096 16.144C56.1096 15.2 56.2456 14.36 56.5176 13.624C56.7896 12.888 57.1736 12.256 57.6696 11.728C58.1816 11.184 58.7896 10.776 59.4936 10.504C60.2136 10.216 61.0136 10.072 61.8936 10.072C63.0616 10.072 64.0696 10.32 64.9176 10.816C65.7816 11.312 66.4536 12.016 66.9336 12.928C67.4136 13.824 67.6536 14.896 67.6536 16.144C67.6536 17.072 67.5176 17.912 67.2456 18.664C66.9736 19.416 66.5816 20.056 66.0696 20.584C65.5736 21.112 64.9656 21.52 64.2456 21.808C63.5416 22.08 62.7576 22.216 61.8936 22.216ZM61.8936 20.344C62.5496 20.344 63.1256 20.184 63.6216 19.864C64.1176 19.544 64.5016 19.072 64.7736 18.448C65.0616 17.824 65.2056 17.056 65.2056 16.144C65.2056 14.768 64.9016 13.728 64.2936 13.024C63.6856 12.32 62.8856 11.968 61.8936 11.968C61.2216 11.968 60.6376 12.128 60.1416 12.448C59.6456 12.752 59.2536 13.216 58.9656 13.84C58.6936 14.464 58.5576 15.232 58.5576 16.144C58.5576 17.504 58.8616 18.544 59.4696 19.264C60.0776 19.984 60.8856 20.344 61.8936 20.344ZM75.4639 22.216C74.2799 22.216 73.2559 21.968 72.3919 21.472C71.5439 20.976 70.8799 20.272 70.3999 19.36C69.9199 18.448 69.6799 17.376 69.6799 16.144C69.6799 15.2 69.8159 14.36 70.0879 13.624C70.3599 12.888 70.7439 12.256 71.2399 11.728C71.7519 11.184 72.3599 10.776 73.0639 10.504C73.7839 10.216 74.5839 10.072 75.4639 10.072C76.6319 10.072 77.6399 10.32 78.4879 10.816C79.3519 11.312 80.0239 12.016 80.5039 12.928C80.9839 13.824 81.2239 14.896 81.2239 16.144C81.2239 17.072 81.0879 17.912 80.8159 18.664C80.5439 19.416 80.1519 20.056 79.6399 20.584C79.1439 21.112 78.5359 21.52 77.8159 21.808C77.1119 22.08 76.3279 22.216 75.4639 22.216ZM75.4639 20.344C76.1199 20.344 76.6959 20.184 77.1919 19.864C77.6879 19.544 78.0719 19.072 78.3439 18.448C78.6319 17.824 78.7759 17.056 78.7759 16.144C78.7759 14.768 78.4719 13.728 77.8639 13.024C77.2559 12.32 76.4559 11.968 75.4639 11.968C74.7919 11.968 74.2079 12.128 73.7119 12.448C73.2159 12.752 72.8239 13.216 72.5359 13.84C72.2639 14.464 72.1279 15.232 72.1279 16.144C72.1279 17.504 72.4319 18.544 73.0399 19.264C73.6479 19.984 74.4559 20.344 75.4639 20.344ZM85.1702 22.168C84.7702 22.168 84.4662 22.064 84.2582 21.856C84.0502 21.632 83.9462 21.328 83.9462 20.944V11.344C83.9462 10.944 84.0502 10.64 84.2582 10.432C84.4662 10.224 84.7542 10.12 85.1222 10.12C85.5062 10.12 85.7942 10.224 85.9862 10.432C86.1942 10.64 86.2982 10.944 86.2982 11.344V13.096H86.0582C86.3142 12.136 86.7862 11.408 87.4742 10.912C88.1622 10.416 89.0422 10.128 90.1142 10.048C90.4022 10.032 90.6262 10.104 90.7862 10.264C90.9622 10.424 91.0582 10.672 91.0742 11.008C91.1062 11.344 91.0342 11.616 90.8582 11.824C90.6822 12.016 90.4102 12.128 90.0422 12.16L89.5862 12.208C88.5462 12.304 87.7542 12.632 87.2102 13.192C86.6662 13.752 86.3942 14.52 86.3942 15.496V20.944C86.3942 21.328 86.2902 21.632 86.0822 21.856C85.8902 22.064 85.5862 22.168 85.1702 22.168ZM100.739 22.168C100.339 22.168 100.027 22.056 99.8034 21.832C99.5954 21.608 99.4914 21.296 99.4914 20.896V6.352C99.4914 5.936 99.6034 5.624 99.8274 5.416C100.051 5.192 100.363 5.08 100.763 5.08H106.499C108.323 5.08 109.731 5.536 110.723 6.448C111.715 7.344 112.211 8.608 112.211 10.24C112.211 11.888 111.715 13.168 110.723 14.08C109.731 14.976 108.323 15.424 106.499 15.424H101.987V20.896C101.987 21.296 101.883 21.608 101.675 21.832C101.467 22.056 101.155 22.168 100.739 22.168ZM101.987 13.432H106.139C107.339 13.432 108.243 13.168 108.851 12.64C109.475 12.096 109.787 11.296 109.787 10.24C109.787 9.2 109.475 8.416 108.851 7.888C108.243 7.344 107.339 7.072 106.139 7.072H101.987V13.432ZM118.394 22.216C117.146 22.216 116.202 21.856 115.562 21.136C114.938 20.4 114.626 19.344 114.626 17.968V6.136C114.626 5.736 114.73 5.432 114.938 5.224C115.146 5.016 115.442 4.912 115.826 4.912C116.21 4.912 116.506 5.016 116.714 5.224C116.938 5.432 117.05 5.736 117.05 6.136V17.824C117.05 18.624 117.21 19.224 117.53 19.624C117.866 20.008 118.346 20.2 118.97 20.2C119.114 20.2 119.242 20.2 119.354 20.2C119.466 20.184 119.578 20.168 119.69 20.152C119.882 20.136 120.018 20.192 120.098 20.32C120.178 20.432 120.218 20.672 120.218 21.04C120.218 21.376 120.146 21.64 120.002 21.832C119.858 22.008 119.626 22.12 119.306 22.168C119.162 22.184 119.01 22.192 118.85 22.192C118.69 22.208 118.538 22.216 118.394 22.216ZM125.706 22.216C124.89 22.216 124.154 22.056 123.498 21.736C122.858 21.416 122.354 20.984 121.986 20.44C121.618 19.896 121.434 19.28 121.434 18.592C121.434 17.728 121.65 17.048 122.082 16.552C122.53 16.04 123.258 15.68 124.266 15.472C125.29 15.248 126.666 15.136 128.394 15.136H129.522V16.624H128.418C127.266 16.624 126.354 16.68 125.682 16.792C125.01 16.904 124.53 17.096 124.242 17.368C123.97 17.624 123.834 17.984 123.834 18.448C123.834 19.056 124.042 19.552 124.458 19.936C124.874 20.304 125.45 20.488 126.186 20.488C126.778 20.488 127.298 20.352 127.746 20.08C128.194 19.792 128.546 19.408 128.802 18.928C129.074 18.448 129.21 17.896 129.21 17.272V14.512C129.21 13.6 129.018 12.944 128.634 12.544C128.25 12.144 127.618 11.944 126.738 11.944C126.226 11.944 125.69 12.008 125.13 12.136C124.586 12.264 124.018 12.48 123.426 12.784C123.154 12.912 122.922 12.952 122.73 12.904C122.538 12.856 122.386 12.752 122.274 12.592C122.162 12.416 122.098 12.232 122.082 12.04C122.082 11.832 122.13 11.632 122.226 11.44C122.338 11.248 122.522 11.104 122.778 11.008C123.482 10.672 124.178 10.432 124.866 10.288C125.554 10.144 126.202 10.072 126.81 10.072C127.882 10.072 128.762 10.24 129.45 10.576C130.154 10.912 130.674 11.424 131.01 12.112C131.346 12.8 131.514 13.688 131.514 14.776V20.944C131.514 21.328 131.418 21.632 131.226 21.856C131.034 22.064 130.754 22.168 130.386 22.168C130.034 22.168 129.754 22.064 129.546 21.856C129.338 21.632 129.234 21.328 129.234 20.944V19.384H129.45C129.322 19.976 129.082 20.488 128.73 20.92C128.394 21.336 127.97 21.656 127.458 21.88C126.946 22.104 126.362 22.216 125.706 22.216ZM136.052 22.168C135.668 22.168 135.372 22.064 135.164 21.856C134.956 21.632 134.852 21.328 134.852 20.944V11.344C134.852 10.944 134.956 10.64 135.164 10.432C135.372 10.224 135.66 10.12 136.028 10.12C136.412 10.12 136.7 10.224 136.892 10.432C137.1 10.64 137.204 10.944 137.204 11.344V13.216L136.94 12.784C137.292 11.888 137.844 11.216 138.596 10.768C139.348 10.304 140.212 10.072 141.188 10.072C142.116 10.072 142.884 10.248 143.492 10.6C144.116 10.936 144.58 11.456 144.884 12.16C145.188 12.848 145.34 13.72 145.34 14.776V20.944C145.34 21.328 145.236 21.632 145.028 21.856C144.82 22.064 144.524 22.168 144.14 22.168C143.74 22.168 143.436 22.064 143.228 21.856C143.02 21.632 142.916 21.328 142.916 20.944V14.92C142.916 13.912 142.716 13.176 142.316 12.712C141.932 12.248 141.324 12.016 140.492 12.016C139.516 12.016 138.732 12.32 138.14 12.928C137.564 13.536 137.276 14.352 137.276 15.376V20.944C137.276 21.76 136.868 22.168 136.052 22.168ZM153.673 22.216C152.713 22.216 151.905 22.048 151.249 21.712C150.593 21.376 150.105 20.88 149.785 20.224C149.465 19.568 149.305 18.768 149.305 17.824V12.16H147.865C147.545 12.16 147.297 12.08 147.121 11.92C146.945 11.744 146.857 11.512 146.857 11.224C146.857 10.92 146.945 10.688 147.121 10.528C147.297 10.368 147.545 10.288 147.865 10.288H149.305V7.816C149.305 7.416 149.409 7.112 149.617 6.904C149.841 6.696 150.145 6.592 150.529 6.592C150.913 6.592 151.209 6.696 151.417 6.904C151.625 7.112 151.729 7.416 151.729 7.816V10.288H154.537C154.857 10.288 155.105 10.368 155.281 10.528C155.457 10.688 155.545 10.92 155.545 11.224C155.545 11.512 155.457 11.744 155.281 11.92C155.105 12.08 154.857 12.16 154.537 12.16H151.729V17.632C151.729 18.48 151.905 19.12 152.257 19.552C152.625 19.984 153.217 20.2 154.033 20.2C154.321 20.2 154.569 20.176 154.777 20.128C155.001 20.064 155.185 20.024 155.329 20.008C155.505 20.008 155.649 20.072 155.761 20.2C155.873 20.312 155.929 20.536 155.929 20.872C155.929 21.112 155.881 21.336 155.785 21.544C155.705 21.752 155.553 21.888 155.329 21.952C155.137 22.016 154.873 22.072 154.537 22.12C154.217 22.184 153.929 22.216 153.673 22.216Z" fill="#1A1A1A"/>
<g clip-path="url(#clip0_1_580)">
<path d="M7.99996 50.1733L3.29796 52.8053L4.34796 47.52L0.391296 43.8613L5.74263 43.2266L7.99996 38.3333L10.2573 43.2266L15.6086 43.8613L11.652 47.52L12.702 52.8053L7.99996 50.1733Z" fill="#F4C300"/>
</g>
<g clip-path="url(#clip1_1_580)">
<path d="M28 50.1733L23.298 52.8053L24.348 47.52L20.3913 43.8613L25.7426 43.2266L28 38.3333L30.2573 43.2266L35.6086 43.8613L31.652 47.52L32.702 52.8053L28 50.1733Z" fill="#F4C300"/>
</g>
<g clip-path="url(#clip2_1_580)">
<path d="M48 50.1733L43.298 52.8053L44.348 47.52L40.3913 43.8613L45.7426 43.2266L48 38.3333L50.2573 43.2266L55.6086 43.8613L51.652 47.52L52.702 52.8053L48 50.1733Z" fill="#F4C300"/>
</g>
<g clip-path="url(#clip3_1_580)">
<path d="M68 50.1733L63.298 52.8053L64.348 47.52L60.3913 43.8613L65.7426 43.2266L68 38.3333L70.2573 43.2266L75.6086 43.8613L71.652 47.52L72.702 52.8053L68 50.1733Z" fill="#F4C300"/>
</g>
<g clip-path="url(#clip4_1_580)">
<path d="M88 50.1733L83.298 52.8053L84.348 47.52L80.3913 43.8613L85.7426 43.2266L88 38.3333L90.2573 43.2266L95.6086 43.8613L91.652 47.52L92.702 52.8053L88 50.1733Z" fill="#F4C300"/>
</g>
<path d="M4.96 82.952C4.768 82.952 4.608 82.888 4.48 82.76C4.36267 82.632 4.304 82.4773 4.304 82.296V80.776L4.624 81.08C3.87733 81.0693 3.20533 80.9733 2.608 80.792C2.01067 80.6 1.50933 80.3707 1.104 80.104C0.954667 80.008 0.848 79.8853 0.784 79.736C0.72 79.5867 0.698667 79.4373 0.72 79.288C0.752 79.1387 0.816 79.0107 0.912 78.904C1.008 78.7973 1.12533 78.7333 1.264 78.712C1.40267 78.6907 1.56267 78.7333 1.744 78.84C2.07467 79.0533 2.48533 79.2453 2.976 79.416C3.47733 79.5867 4.08533 79.672 4.8 79.672C5.376 79.672 5.84533 79.5973 6.208 79.448C6.58133 79.2987 6.85333 79.096 7.024 78.84C7.20533 78.584 7.296 78.2853 7.296 77.944C7.296 77.6667 7.232 77.4267 7.104 77.224C6.98667 77.0213 6.78933 76.8507 6.512 76.712C6.23467 76.5627 5.86667 76.44 5.408 76.344L3.76 75.992C2.78933 75.7787 2.064 75.4267 1.584 74.936C1.11467 74.4453 0.88 73.8 0.88 73C0.88 72.3707 1.02933 71.8107 1.328 71.32C1.63733 70.8293 2.064 70.44 2.608 70.152C3.16267 69.864 3.808 69.6987 4.544 69.656L4.304 69.88V68.424C4.304 68.2427 4.36267 68.088 4.48 67.96C4.608 67.832 4.768 67.768 4.96 67.768C5.14133 67.768 5.296 67.832 5.424 67.96C5.552 68.088 5.616 68.2427 5.616 68.424V69.88L5.344 69.656C5.83467 69.6667 6.35733 69.768 6.912 69.96C7.46667 70.1413 7.94133 70.4027 8.336 70.744C8.464 70.8507 8.544 70.9733 8.576 71.112C8.61867 71.2507 8.61867 71.384 8.576 71.512C8.544 71.64 8.48 71.7467 8.384 71.832C8.288 71.9173 8.16533 71.9653 8.016 71.976C7.86667 71.9867 7.70667 71.9333 7.536 71.816C7.19467 71.5813 6.816 71.3947 6.4 71.256C5.99467 71.1173 5.50933 71.048 4.944 71.048C4.19733 71.048 3.60533 71.224 3.168 71.576C2.73067 71.928 2.512 72.3867 2.512 72.952C2.512 73.3787 2.64533 73.7253 2.912 73.992C3.17867 74.248 3.62667 74.4453 4.256 74.584L5.936 74.936C6.96 75.16 7.71733 75.5067 8.208 75.976C8.69867 76.4453 8.944 77.0693 8.944 77.848C8.944 78.456 8.78933 78.9947 8.48 79.464C8.17067 79.9227 7.744 80.2907 7.2 80.568C6.66667 80.8347 6.048 81 5.344 81.064L5.616 80.76V82.296C5.616 82.4773 5.552 82.632 5.424 82.76C5.30667 82.888 5.152 82.952 4.96 82.952ZM14.5698 81.144C13.9831 81.144 13.3911 81.064 12.7938 80.904C12.1964 80.7333 11.6524 80.472 11.1618 80.12C11.0018 80.024 10.8951 79.9013 10.8418 79.752C10.7884 79.6027 10.7778 79.4587 10.8098 79.32C10.8418 79.1707 10.9058 79.048 11.0018 78.952C11.1084 78.856 11.2364 78.8027 11.3858 78.792C11.5351 78.7707 11.6951 78.8133 11.8658 78.92C12.2818 79.1867 12.7084 79.3893 13.1458 79.528C13.5938 79.6667 14.0578 79.736 14.5378 79.736C15.0284 79.736 15.4498 79.6453 15.8018 79.464C16.1538 79.2827 16.4204 79.032 16.6018 78.712C16.7938 78.3813 16.8898 77.9973 16.8898 77.56C16.8898 76.888 16.6924 76.3387 16.2978 75.912C15.9031 75.4853 15.3538 75.272 14.6498 75.272C14.2444 75.272 13.8658 75.3467 13.5138 75.496C13.1618 75.6347 12.8258 75.8693 12.5058 76.2C12.4311 76.2853 12.3298 76.3653 12.2018 76.44C12.0844 76.504 11.9511 76.536 11.8018 76.536C11.5778 76.536 11.4071 76.4773 11.2898 76.36C11.1724 76.2427 11.1138 76.0827 11.1138 75.88V70.456C11.1138 70.2213 11.1778 70.04 11.3058 69.912C11.4338 69.784 11.6151 69.72 11.8498 69.72H17.2098C17.4444 69.72 17.6258 69.7787 17.7538 69.896C17.8818 70.0133 17.9458 70.184 17.9458 70.408C17.9458 70.632 17.8818 70.808 17.7538 70.936C17.6258 71.0533 17.4444 71.112 17.2098 71.112H12.7298V75.176H12.2818C12.5698 74.7707 12.9484 74.456 13.4178 74.232C13.8978 74.008 14.4258 73.896 15.0018 73.896C15.7164 73.896 16.3351 74.0453 16.8578 74.344C17.3804 74.6427 17.7858 75.064 18.0738 75.608C18.3618 76.1413 18.5058 76.7653 18.5058 77.48C18.5058 78.2053 18.3458 78.8453 18.0258 79.4C17.7058 79.944 17.2524 80.3707 16.6658 80.68C16.0791 80.9893 15.3804 81.144 14.5698 81.144ZM23.9875 81.144C22.6755 81.144 21.6728 80.648 20.9795 79.656C20.2968 78.6533 19.9555 77.2187 19.9555 75.352C19.9555 74.0827 20.1102 73.0213 20.4195 72.168C20.7288 71.3147 21.1822 70.6693 21.7795 70.232C22.3768 69.7947 23.1128 69.576 23.9875 69.576C25.3102 69.576 26.3128 70.0667 26.9955 71.048C27.6782 72.0187 28.0195 73.448 28.0195 75.336C28.0195 76.584 27.8648 77.64 27.5555 78.504C27.2462 79.368 26.7928 80.024 26.1955 80.472C25.5982 80.92 24.8622 81.144 23.9875 81.144ZM23.9875 79.768C24.8088 79.768 25.4115 79.4107 25.7955 78.696C26.1902 77.9707 26.3875 76.8507 26.3875 75.336C26.3875 73.8107 26.1902 72.7013 25.7955 72.008C25.4115 71.304 24.8088 70.952 23.9875 70.952C23.1768 70.952 22.5742 71.304 22.1795 72.008C21.7848 72.7013 21.5875 73.8107 21.5875 75.336C21.5875 76.8507 21.7848 77.9707 22.1795 78.696C22.5742 79.4107 23.1768 79.768 23.9875 79.768ZM30.7013 81.064C30.3919 81.064 30.1413 80.968 29.9493 80.776C29.7573 80.584 29.6613 80.3387 29.6613 80.04C29.6613 79.7413 29.7573 79.5013 29.9493 79.32C30.1413 79.128 30.3919 79.032 30.7013 79.032C31.0106 79.032 31.2559 79.128 31.4373 79.32C31.6186 79.5013 31.7093 79.7413 31.7093 80.04C31.7093 80.3387 31.6186 80.584 31.4373 80.776C31.2559 80.968 31.0106 81.064 30.7013 81.064ZM37.3781 81.144C36.0661 81.144 35.0635 80.648 34.3701 79.656C33.6875 78.6533 33.3461 77.2187 33.3461 75.352C33.3461 74.0827 33.5008 73.0213 33.8101 72.168C34.1195 71.3147 34.5728 70.6693 35.1701 70.232C35.7675 69.7947 36.5035 69.576 37.3781 69.576C38.7008 69.576 39.7035 70.0667 40.3861 71.048C41.0688 72.0187 41.4101 73.448 41.4101 75.336C41.4101 76.584 41.2555 77.64 40.9461 78.504C40.6368 79.368 40.1835 80.024 39.5861 80.472C38.9888 80.92 38.2528 81.144 37.3781 81.144ZM37.3781 79.768C38.1995 79.768 38.8021 79.4107 39.1861 78.696C39.5808 77.9707 39.7781 76.8507 39.7781 75.336C39.7781 73.8107 39.5808 72.7013 39.1861 72.008C38.8021 71.304 38.1995 70.952 37.3781 70.952C36.5675 70.952 35.9648 71.304 35.5701 72.008C35.1755 72.7013 34.9781 73.8107 34.9781 75.336C34.9781 76.8507 35.1755 77.9707 35.5701 78.696C35.9648 79.4107 36.5675 79.768 37.3781 79.768ZM46.9719 81.144C45.6599 81.144 44.6572 80.648 43.9639 79.656C43.2812 78.6533 42.9399 77.2187 42.9399 75.352C42.9399 74.0827 43.0945 73.0213 43.4039 72.168C43.7132 71.3147 44.1665 70.6693 44.7639 70.232C45.3612 69.7947 46.0972 69.576 46.9719 69.576C48.2945 69.576 49.2972 70.0667 49.9799 71.048C50.6625 72.0187 51.0039 73.448 51.0039 75.336C51.0039 76.584 50.8492 77.64 50.5399 78.504C50.2305 79.368 49.7772 80.024 49.1799 80.472C48.5825 80.92 47.8465 81.144 46.9719 81.144ZM46.9719 79.768C47.7932 79.768 48.3959 79.4107 48.7799 78.696C49.1745 77.9707 49.3719 76.8507 49.3719 75.336C49.3719 73.8107 49.1745 72.7013 48.7799 72.008C48.3959 71.304 47.7932 70.952 46.9719 70.952C46.1612 70.952 45.5585 71.304 45.1639 72.008C44.7692 72.7013 44.5719 73.8107 44.5719 75.336C44.5719 76.8507 44.7692 77.9707 45.1639 78.696C45.5585 79.4107 46.1612 79.768 46.9719 79.768Z" fill="#1A1A1A"/>
<defs>
<clipPath id="clip0_1_580">
<rect width="16" height="16" fill="white" transform="translate(0 38)"/>
</clipPath>
<clipPath id="clip1_1_580">
<rect width="16" height="16" fill="white" transform="translate(20 38)"/>
</clipPath>
<clipPath id="clip2_1_580">
<rect width="16" height="16" fill="white" transform="translate(40 38)"/>
</clipPath>
<clipPath id="clip3_1_580">
<rect width="16" height="16" fill="white" transform="translate(60 38)"/>
</clipPath>
<clipPath id="clip4_1_580">
<rect width="16" height="16" fill="white" transform="translate(80 38)"/>
</clipPath>
</defs>
</svg>
